<svg width="162" height="28" viewBox="0 0 162 28" fill="none" xmlns="http://www.w3.org/2000/svg">
<path d="M2.98828 18.5273C2.54297 18.5273 2.05078 18.4102 1.51172 18.1758C0.925781 17.9648 0.527344 17.707 0.316406 17.4023C0.105469 17.1445 0 16.8984 0 16.6641C0 16.5 0.046875 16.3594 0.140625 16.2422C0.234375 16.125 0.351562 16.0664 0.492188 16.0664C0.726562 16.0664 0.972656 16.1953 1.23047 16.4531C1.46484 16.6875 1.65234 16.8281 1.79297 16.875C1.95703 16.9219 2.25 16.9453 2.67188 16.9453C4.17188 16.8984 5.48438 16.5586 6.60938 15.9258C7.75781 15.293 8.33203 14.4375 8.33203 13.3594C8.33203 12.9844 8.23828 12.5508 8.05078 12.0586C7.91016 11.7773 7.59375 11.3555 7.10156 10.793C6.60938 10.2305 6.23438 9.86719 5.97656 9.70312C5.69531 9.51562 5.27344 9.08203 4.71094 8.40234C4.17188 7.72266 3.77344 7.13672 3.51562 6.64453C3.09375 5.87109 2.88281 5.39062 2.88281 5.20312C2.88281 5.03906 2.98828 4.83984 3.19922 4.60547C3.31641 4.51172 3.52734 4.24219 3.83203 3.79688C4.11328 3.39844 4.3125 3.16406 4.42969 3.09375L5.51953 2.21484C6.90234 1.08984 7.83984 0.445312 8.33203 0.28125C8.75391 0.09375 9.04688 0 9.21094 0C9.35156 0 9.46875 0.0703125 9.5625 0.210938C9.67969 0.328125 9.73828 0.445312 9.73828 0.5625C9.73828 0.796875 9.50391 1.05469 9.03516 1.33594C8.33203 1.78125 7.33594 2.63672 6.04688 3.90234C5.55469 4.34766 5.26172 4.64062 5.16797 4.78125C5.07422 4.94531 5.02734 5.16797 5.02734 5.44922C5.02734 6.24609 5.66016 7.19531 6.92578 8.29688C8.00391 9.32812 8.75391 10.1836 9.17578 10.8633C9.62109 11.543 9.91406 12.3633 10.0547 13.3242C9.91406 13.8867 9.65625 14.5078 9.28125 15.1875C8.90625 15.8672 8.54297 16.3477 8.19141 16.6289C7.74609 17.0039 7.27734 17.332 6.78516 17.6133C6.29297 17.8945 5.92969 18.0352 5.69531 18.0352C5.53125 18.0352 5.13281 18.1172 4.5 18.2812C3.86719 18.4453 3.36328 18.5273 2.98828 18.5273ZM22.9219 18.2461C22.5234 18.2461 22.0078 17.3906 21.375 15.6797C21.2344 15.3516 21.0469 15.0117 20.8125 14.6602C20.5312 14.2383 20.332 13.875 20.2148 13.5703C19.8633 12.8203 19.5938 12.4453 19.4062 12.4453C19.2891 12.4453 19.0898 12.668 18.8086 13.1133L18.4219 13.6406C17.5078 15 16.582 15.9375 15.6445 16.4531C15.1289 16.7344 14.6367 16.875 14.168 16.875C13.3008 16.875 12.7734 16.5117 12.5859 15.7852C12.5156 15.457 12.4805 15.1289 12.4805 14.8008C12.4805 13.6992 12.832 12.3633 13.5352 10.793C13.6992 10.418 13.875 10.1016 14.0625 9.84375C14.2734 9.5625 14.6367 9.16406 15.1523 8.64844C15.7383 8.08594 16.1602 7.71094 16.418 7.52344C16.6758 7.3125 16.875 7.18359 17.0156 7.13672C17.1797 7.08984 17.5195 7.00781 18.0352 6.89062H18.1055C18.3867 6.89062 18.7969 7.08984 19.3359 7.48828L20.4609 8.33203C20.6484 8.51953 20.7539 8.67188 20.7773 8.78906C20.8242 8.90625 20.8594 9.26953 20.8828 9.87891C20.9297 10.5117 20.9883 10.9453 21.0586 11.1797C21.1289 11.4141 21.3516 11.8828 21.7266 12.5859C22.3594 13.8047 22.8633 15 23.2383 16.1719C23.4727 16.8516 23.5898 17.3086 23.5898 17.543C23.5898 17.7305 23.5078 17.8945 23.3438 18.0352C23.2031 18.1758 23.0625 18.2461 22.9219 18.2461ZM14.5547 15.1172C14.9766 15.1172 15.6094 14.6602 16.4531 13.7461C17.4375 12.7383 18.1875 11.6953 18.7031 10.6172C18.9375 10.2188 19.0547 9.85547 19.0547 9.52734C19.0547 9.19922 18.9609 8.94141 18.7734 8.75391C18.5859 8.54297 18.3164 8.41406 17.9648 8.36719C17.6133 8.39062 17.3438 8.47266 17.1562 8.61328C16.8984 8.77734 16.5352 9.12891 16.0664 9.66797C15.0117 10.7695 14.3906 11.9414 14.2031 13.1836C14.0859 13.8867 14.0273 14.3203 14.0273 14.4844C14.0273 14.9062 14.2031 15.1172 14.5547 15.1172ZM26.1562 17.3672C25.9922 17.3672 25.8281 17.2852 25.6641 17.1211C25.5234 16.9336 25.4531 16.7109 25.4531 16.4531C25.4531 16.1953 25.5469 15.9023 25.7344 15.5742C26.1328 14.6367 26.3906 13.8516 26.5078 13.2188C26.625 12.5859 26.8008 11.3438 27.0352 9.49219C27.1055 8.92969 27.2344 8.39062 27.4219 7.875C27.6094 7.45312 27.7852 7.24219 27.9492 7.24219C28.4648 7.75781 28.7461 8.12109 28.793 8.33203C28.793 8.66016 28.7227 9.31641 28.582 10.3008C28.4648 11.2852 28.3594 11.8828 28.2656 12.0938L28.1953 12.5156C28.1953 12.7734 28.2891 12.9023 28.4766 12.9023C28.6875 12.9023 28.957 12.668 29.2852 12.1992C29.7539 11.4492 30.4453 10.7344 31.3594 10.0547C32.2734 9.375 33.0586 9.03516 33.7148 9.03516C33.9492 9.03516 34.1602 9.21094 34.3477 9.5625C34.5586 9.91406 34.6641 10.3711 34.6641 10.9336C34.6641 11.3789 34.7461 11.6016 34.9102 11.6016C35.0273 11.6016 35.2617 11.4023 35.6133 11.0039L35.9648 10.6172C36.3164 10.125 36.8203 9.58594 37.4766 9C38.1562 8.39062 38.6367 8.05078 38.918 7.98047C39.0586 7.93359 39.1641 7.91016 39.2344 7.91016C39.375 7.91016 39.5273 7.95703 39.6914 8.05078C39.9961 8.21484 40.1953 8.44922 40.2891 8.75391C40.3594 9.05859 40.3945 9.69141 40.3945 10.6523V11.1094C40.3945 12 40.2422 12.7969 39.9375 13.5L39.5508 14.4844C39.1992 15.375 38.9648 15.8906 38.8477 16.0312C38.6836 16.2656 38.4609 16.3828 38.1797 16.3828C37.8984 16.3828 37.7578 16.1016 37.7578 15.5391C37.7578 15.2344 37.8164 14.8477 37.9336 14.3789C38.4492 12.4805 38.707 11.3086 38.707 10.8633V10.793C38.6133 10.418 38.4609 10.2305 38.25 10.2305C38.0391 10.2305 37.6289 10.6406 37.0195 11.4609C36.832 11.7188 36.3633 12.293 35.6133 13.1836C34.8633 14.0742 34.3594 14.707 34.1016 15.082C33.8906 15.4102 33.6211 15.7148 33.293 15.9961C32.9883 16.2539 32.7656 16.3828 32.625 16.3828C32.5078 16.3828 32.3555 16.2891 32.168 16.1016C31.9805 15.9141 31.8867 15.7734 31.8867 15.6797C31.9336 15.375 32.0625 15 32.2734 14.5547C32.6953 13.5234 32.9062 12.5742 32.9062 11.707C32.9062 11.3086 32.8008 11.1094 32.5898 11.1094C32.3086 11.1094 31.9336 11.3086 31.4648 11.707C30.9961 12.1055 30.5742 12.5742 30.1992 13.1133C30.0117 13.3711 29.5312 13.9102 28.7578 14.7305C28.1016 15.3867 27.6094 15.9258 27.2812 16.3477C26.7891 17.0273 26.4141 17.3672 26.1562 17.3672ZM53.543 19.2656C53.3086 19.2656 53.0977 19.1602 52.9102 18.9492C52.7461 18.7383 52.6641 18.4805 52.6641 18.1758C52.6641 18.0586 52.6758 17.9648 52.6992 17.8945V17.8242C52.6992 17.6367 52.7344 17.3672 52.8047 17.0156C52.875 16.6406 52.9453 16.2656 53.0156 15.8906C53.2266 15.0469 53.332 14.4492 53.332 14.0977C53.332 13.8398 53.4258 13.2422 53.6133 12.3047C53.8008 11.3203 53.8945 10.6992 53.8945 10.4414C53.8945 10.0898 53.7773 9.91406 53.543 9.91406C53.4492 9.91406 53.1797 10.0078 52.7344 10.1953L52.0312 10.4766C51.0703 10.9453 50.4023 11.2383 50.0273 11.3555C49.4883 11.5898 48.7852 11.8477 47.918 12.1289L46.7227 12.5508C46.207 12.6914 45.8203 12.8906 45.5625 13.1484C45.3281 13.3828 45.1758 13.7227 45.1055 14.168C45.082 14.332 45 14.6836 44.8594 15.2227C44.7188 15.5977 44.6133 15.9844 44.543 16.3828C44.4492 16.9922 44.3203 17.4375 44.1562 17.7188C44.0156 17.9766 43.8164 18.1055 43.5586 18.1055C43.1133 18.1055 42.8906 17.8477 42.8906 17.332V17.1914C42.9609 16.5117 43.1484 15.6328 43.4531 14.5547C43.7578 13.5 43.9453 12.6211 44.0156 11.918C44.0625 11.6133 44.1445 11.1094 44.2617 10.4062C44.3789 9.70312 44.4492 9.07031 44.4727 8.50781C44.5195 7.64062 44.5547 7.125 44.5781 6.96094C44.6016 6.79688 44.6953 6.65625 44.8594 6.53906C45.0469 6.42188 45.1758 6.36328 45.2461 6.36328L45.5273 6.43359C45.9961 6.62109 46.2305 7.11328 46.2305 7.91016C46.2305 8.30859 46.1953 8.85938 46.125 9.5625L45.9844 10.6523C45.9844 10.9336 46.0898 11.0742 46.3008 11.0742C46.4648 11.0742 46.8281 10.9453 47.3906 10.6875C47.6484 10.5469 48.0938 10.3828 48.7266 10.1953L49.9219 9.84375C50.1328 9.67969 50.3789 9.5625 50.6602 9.49219C51.1992 9.30469 51.9258 8.97656 52.8398 8.50781C53.7539 8.01562 54.2695 7.6875 54.3867 7.52344C54.4805 7.35938 54.5625 7.10156 54.6328 6.75L54.9492 3.97266C55.0664 2.98828 55.1602 2.42578 55.2305 2.28516C55.3008 2.14453 55.4297 2.07422 55.6172 2.07422C55.8984 2.07422 56.1094 2.16797 56.25 2.35547C56.3906 2.49609 56.4844 3.25781 56.5312 4.64062V5.73047C56.5312 6.48047 56.4141 7.27734 56.1797 8.12109C55.7578 9.76172 55.5469 10.7812 55.5469 11.1797C55.4766 11.7656 55.2773 12.9023 54.9492 14.5898C54.5977 16.1602 54.4219 17.2852 54.4219 17.9648C54.4219 18.3633 54.4102 18.5977 54.3867 18.668C54.3398 18.8086 54.2578 18.9258 54.1406 19.0195C53.9531 19.1836 53.7539 19.2656 53.543 19.2656ZM69.3281 18.2461C68.9297 18.2461 68.4141 17.3906 67.7812 15.6797C67.6406 15.3516 67.4531 15.0117 67.2188 14.6602C66.9375 14.2383 66.7383 13.875 66.6211 13.5703C66.2695 12.8203 66 12.4453 65.8125 12.4453C65.6953 12.4453 65.4961 12.668 65.2148 13.1133L64.8281 13.6406C63.9141 15 62.9883 15.9375 62.0508 16.4531C61.5352 16.7344 61.043 16.875 60.5742 16.875C59.707 16.875 59.1797 16.5117 58.9922 15.7852C58.9219 15.457 58.8867 15.1289 58.8867 14.8008C58.8867 13.6992 59.2383 12.3633 59.9414 10.793C60.1055 10.418 60.2812 10.1016 60.4688 9.84375C60.6797 9.5625 61.043 9.16406 61.5586 8.64844C62.1445 8.08594 62.5664 7.71094 62.8242 7.52344C63.082 7.3125 63.2812 7.18359 63.4219 7.13672C63.5859 7.08984 63.9258 7.00781 64.4414 6.89062H64.5117C64.793 6.89062 65.2031 7.08984 65.7422 7.48828L66.8672 8.33203C67.0547 8.51953 67.1602 8.67188 67.1836 8.78906C67.2305 8.90625 67.2656 9.26953 67.2891 9.87891C67.3359 10.5117 67.3945 10.9453 67.4648 11.1797C67.5352 11.4141 67.7578 11.8828 68.1328 12.5859C68.7656 13.8047 69.2695 15 69.6445 16.1719C69.8789 16.8516 69.9961 17.3086 69.9961 17.543C69.9961 17.7305 69.9141 17.8945 69.75 18.0352C69.6094 18.1758 69.4688 18.2461 69.3281 18.2461ZM60.9609 15.1172C61.3828 15.1172 62.0156 14.6602 62.8594 13.7461C63.8438 12.7383 64.5938 11.6953 65.1094 10.6172C65.3438 10.2188 65.4609 9.85547 65.4609 9.52734C65.4609 9.19922 65.3672 8.94141 65.1797 8.75391C64.9922 8.54297 64.7227 8.41406 64.3711 8.36719C64.0195 8.39062 63.75 8.47266 63.5625 8.61328C63.3047 8.77734 62.9414 9.12891 62.4727 9.66797C61.418 10.7695 60.7969 11.9414 60.6094 13.1836C60.4922 13.8867 60.4336 14.3203 60.4336 14.4844C60.4336 14.9062 60.6094 15.1172 60.9609 15.1172ZM74.8477 17.4375C74.0508 17.4375 73.2656 17.0508 72.4922 16.2773C71.9062 15.6914 71.6133 15.1641 71.6133 14.6953C71.6133 14.4609 71.8008 13.8516 72.1758 12.8672C72.2461 12.5859 72.3398 12.3281 72.457 12.0938C72.5273 11.9531 72.6211 11.6719 72.7383 11.25C72.8555 10.7578 73.2422 10.1602 73.8984 9.45703C74.5781 8.75391 75.1758 8.26172 75.6914 7.98047C75.9258 7.88672 76.1602 7.83984 76.3945 7.83984C76.6992 7.83984 76.9453 7.89844 77.1328 8.01562C77.2734 8.10938 77.5078 8.35547 77.8359 8.75391C78.1641 9.15234 78.2578 9.30469 78.1172 9.21094H77.9766L77.4492 9.17578H76.8516C76.5938 9.17578 76.4297 9.19922 76.3594 9.24609C75.9375 9.41016 75.457 9.92578 74.918 10.793C74.3789 11.6367 74.0273 12.4102 73.8633 13.1133C73.8398 13.2773 73.7578 13.5117 73.6172 13.8164C73.5 14.0977 73.4414 14.3203 73.4414 14.4844C73.4414 14.8125 73.6875 15.1289 74.1797 15.4336C74.5312 15.668 74.8711 15.7852 75.1992 15.7852C75.4336 15.7852 75.9258 15.7266 76.6758 15.6094C77.3555 15.4922 77.9414 15.3281 78.4336 15.1172C78.9258 14.9062 79.6641 14.5078 80.6484 13.9219C81.6094 13.3594 82.1602 13.0781 82.3008 13.0781C82.3945 13.0781 82.4766 13.125 82.5469 13.2188C82.6406 13.3125 82.6875 13.4062 82.6875 13.5C82.6875 13.6875 82.5117 13.9219 82.1602 14.2031L81.1406 15.0469C80.6484 15.4688 80.2852 15.7383 80.0508 15.8555C79.957 15.8789 79.6758 16.043 79.207 16.3477C78.7617 16.6523 78.0703 16.9102 77.1328 17.1211C76.1953 17.332 75.4336 17.4375 74.8477 17.4375ZM85.7812 17.8594C85.4766 17.8594 85.1836 17.6602 84.9023 17.2617C84.6914 16.9805 84.5625 16.7578 84.5156 16.5938C84.4688 16.4062 84.4336 16.0078 84.4102 15.3984C84.3398 14.3438 84.2344 13.6758 84.0938 13.3945C83.9531 13.207 83.8828 13.0312 83.8828 12.8672C83.8828 12.6797 83.9648 12.4453 84.1289 12.1641C84.3164 11.8359 84.4336 11.5547 84.4805 11.3203C84.5742 10.4766 84.7734 9.41016 85.0781 8.12109C85.3359 6.85547 85.5 5.94141 85.5703 5.37891C85.6172 5.00391 85.6992 4.62891 85.8164 4.25391C85.9336 3.87891 86.0156 3.51562 86.0625 3.16406C86.0859 2.83594 86.168 2.57813 86.3086 2.39062C86.4727 2.17969 86.6602 2.07422 86.8711 2.07422L87.1523 2.14453C87.3867 2.40234 87.5039 2.63672 87.5039 2.84766L87.4336 3.375C87.3867 3.58594 87.3398 3.90234 87.293 4.32422C87.2227 5.28516 87.0352 6.48047 86.7305 7.91016C86.4023 9.50391 86.2383 10.418 86.2383 10.6523C86.2383 10.9336 86.3555 11.0742 86.5898 11.0742L86.8008 11.0391C87.0117 10.9688 87.5391 10.5 88.3828 9.63281C89.2266 8.76562 89.8359 8.08594 90.2109 7.59375C90.5625 7.07812 90.832 6.76172 91.0195 6.64453C91.1367 6.55078 91.2891 6.50391 91.4766 6.50391C91.6875 6.50391 91.8633 6.57422 92.0039 6.71484C92.168 6.83203 92.25 6.97266 92.25 7.13672C92.25 7.23047 92.2031 7.34766 92.1094 7.48828C92.0156 7.60547 91.8984 7.73438 91.7578 7.875C91.3828 8.32031 91.1133 8.67188 90.9492 8.92969C90.3633 9.82031 89.6953 10.5117 88.9453 11.0039C88.6406 11.2148 88.3711 11.4609 88.1367 11.7422C87.9023 12 87.7852 12.1992 87.7852 12.3398C87.7852 12.5742 88.1367 12.7148 88.8398 12.7617C89.6367 12.8789 90.9141 13.3828 92.6719 14.2734C93.375 14.6016 93.8789 14.8711 94.1836 15.082C94.3945 15.2461 94.5 15.4102 94.5 15.5742C94.5 15.9727 94.2188 16.1719 93.6562 16.1719C93.4219 16.1719 92.7891 15.9961 91.7578 15.6445C90.7266 15.2695 90.0117 14.9648 89.6133 14.7305C89.4258 14.6367 89.0625 14.543 88.5234 14.4492C87.9375 14.3555 87.5742 14.25 87.4336 14.1328C87.0586 13.9453 86.6836 13.8516 86.3086 13.8516C86.0742 13.8516 85.9219 13.8984 85.8516 13.9922C85.7812 14.0625 85.7461 14.2148 85.7461 14.4492C85.7461 14.8242 85.793 15.2461 85.8867 15.7148C85.9805 16.1836 86.0859 16.5234 86.2031 16.7344C86.3438 16.9453 86.4141 17.1328 86.4141 17.2969C86.4141 17.4844 86.3438 17.625 86.2031 17.7188C86.0859 17.8125 85.9453 17.8594 85.7812 17.8594ZM101.355 18.0352C100.98 18.0352 100.676 17.9531 100.441 17.7891C100.02 17.5312 99.5742 17.0273 99.1055 16.2773C98.6602 15.5273 98.4023 14.8828 98.332 14.3438C98.2852 13.9688 98.168 13.6758 97.9805 13.4648C97.793 13.2305 97.5469 12.9961 97.2422 12.7617C96.9609 12.5273 96.8203 12.3633 96.8203 12.2695C96.8203 12.1523 96.9375 12.0469 97.1719 11.9531C97.4297 11.7656 97.5938 11.4844 97.6641 11.1094C98.1094 8.625 98.8125 7.17188 99.7734 6.75C99.9609 6.65625 100.395 6.60938 101.074 6.60938L102.023 6.64453C102.023 6.83203 102.129 6.99609 102.34 7.13672C102.574 7.27734 102.727 7.37109 102.797 7.41797C103.453 8.09766 103.781 8.75391 103.781 9.38672C103.781 9.80859 103.617 10.2188 103.289 10.6172C102.961 11.0156 102.621 11.332 102.27 11.5664C101.941 11.8008 101.426 12.1055 100.723 12.4805C100.348 12.6914 100.148 12.8086 100.125 12.832C99.7969 12.9727 99.6328 13.1484 99.6328 13.3594C99.6328 13.5 99.6797 13.7109 99.7734 13.9922C99.9375 14.8125 100.195 15.457 100.547 15.9258C100.898 16.3945 101.262 16.6289 101.637 16.6289C102.035 16.6289 102.527 16.3828 103.113 15.8906C103.723 15.4219 104.121 15.1875 104.309 15.1875C104.426 15.1875 104.531 15.2227 104.625 15.293C104.766 15.3164 104.836 15.4805 104.836 15.7852C104.836 15.9492 104.801 16.0898 104.73 16.207C104.66 16.3242 104.496 16.4883 104.238 16.6992C103.207 17.5898 102.246 18.0352 101.355 18.0352ZM99.6328 11.3203C100.336 11.0625 100.945 10.7344 101.461 10.3359C101.977 9.9375 102.234 9.52734 102.234 9.10547C102.234 8.82422 102.117 8.56641 101.883 8.33203C101.672 8.07422 101.461 7.94531 101.25 7.94531C100.922 7.94531 100.547 8.23828 100.125 8.82422C99.6094 9.55078 99.3516 10.2305 99.3516 10.8633C99.3516 11.168 99.4453 11.3203 99.6328 11.3203ZM107.578 17.1211C107.156 17.1211 106.945 16.957 106.945 16.6289C106.945 16.3477 107.086 15.9492 107.367 15.4336C107.836 14.6367 108.07 13.5 108.07 12.0234C108.07 10.0312 107.965 8.88281 107.754 8.57812C107.566 8.39062 107.473 8.17969 107.473 7.94531C107.473 7.80469 107.531 7.67578 107.648 7.55859C107.766 7.44141 107.906 7.38281 108.07 7.38281C108.469 7.38281 108.809 7.69922 109.09 8.33203C109.371 8.94141 109.512 9.66797 109.512 10.5117V10.9688L109.477 11.25C109.477 11.4844 109.547 11.6953 109.688 11.8828H109.723L110.391 11.0039C110.648 10.6289 110.941 10.2773 111.27 9.94922L112.324 8.89453C112.629 8.58984 112.934 8.28516 113.238 7.98047C113.566 7.65234 113.848 7.41797 114.082 7.27734C114.293 7.16016 114.492 7.10156 114.68 7.10156C114.844 7.10156 114.961 7.14844 115.031 7.24219C115.125 7.3125 115.172 7.39453 115.172 7.48828C115.172 7.65234 115.008 7.93359 114.68 8.33203L112.465 10.6523C112.16 10.957 111.598 11.6953 110.777 12.8672C109.98 14.0156 109.523 14.6484 109.406 14.7656C109.312 14.8594 109.113 15.1758 108.809 15.7148C108.527 16.2539 108.316 16.6406 108.176 16.875C108.035 17.0391 107.836 17.1211 107.578 17.1211ZM126.176 19.0195C126.176 18.9023 126.059 18.7969 125.824 18.7031C125.613 18.6094 125.473 18.5391 125.402 18.4922C125.004 18.1875 124.734 17.9648 124.594 17.8242C124.477 17.6836 124.418 17.4961 124.418 17.2617L124.664 16.3125C124.805 15.9844 124.887 15.7266 124.91 15.5391C124.934 15.3047 125.016 15.0703 125.156 14.8359C125.391 14.25 125.672 13.2539 126 11.8477C126.328 10.418 126.562 9.24609 126.703 8.33203C126.727 7.98047 126.832 7.53516 127.02 6.99609C127.16 6.50391 127.266 6 127.336 5.48438C127.688 2.95312 127.957 1.57031 128.145 1.33594C128.215 1.21875 128.344 1.16016 128.531 1.16016C128.695 1.16016 128.895 1.19531 129.129 1.26562C129.34 1.35937 129.492 1.40625 129.586 1.40625C129.703 1.40625 129.914 1.32422 130.219 1.16016C130.523 0.996094 130.875 0.914062 131.273 0.914062C131.859 0.914062 132.457 1.07812 133.066 1.40625C133.699 1.71094 134.098 2.03906 134.262 2.39062C134.426 2.74219 134.508 3.16406 134.508 3.65625C134.508 4.96875 133.945 6.24609 132.82 7.48828C132.328 8.12109 132.082 8.51953 132.082 8.68359C132.082 8.87109 132.152 8.96484 132.293 8.96484L132.434 8.92969C132.574 8.90625 132.703 8.89453 132.82 8.89453C133.664 8.80078 134.191 8.75391 134.402 8.75391C135.059 8.75391 135.422 8.84766 135.492 9.03516L135.668 9.24609C135.715 9.36328 135.785 9.49219 135.879 9.63281C135.996 9.77344 136.066 9.90234 136.09 10.0195C136.207 10.3945 136.289 10.6055 136.336 10.6523C135.914 12.1289 135.633 13.0078 135.492 13.2891C135.164 13.9453 134.543 14.7773 133.629 15.7852C132.738 16.793 131.988 17.4961 131.379 17.8945C130.863 18.2227 130.336 18.4688 129.797 18.6328C129.281 18.7734 128.578 18.8672 127.688 18.9141C127.688 18.9609 127.441 18.9961 126.949 19.0195C126.457 19.043 126.199 19.043 126.176 19.0195ZM126.738 17.7188C127.02 17.7188 127.453 17.6484 128.039 17.5078C129.141 17.2266 130.055 16.8281 130.781 16.3125C131.508 15.7734 132.363 14.8711 133.348 13.6055C133.77 13.0898 134.098 12.5742 134.332 12.0586C134.59 11.543 134.719 11.1211 134.719 10.793C134.719 10.418 134.555 10.2305 134.227 10.2305C134.062 10.2305 133.816 10.2656 133.488 10.3359L132.855 10.4414H132.82C132.398 10.4414 131.602 10.8047 130.43 11.5312C129.211 12.2578 128.473 12.6445 128.215 12.6914C128.027 12.6914 127.816 12.8203 127.582 13.0781C127.371 13.3359 127.242 13.5938 127.195 13.8516C127.055 14.4609 126.75 15.293 126.281 16.3477C126.117 16.6758 126.035 16.9453 126.035 17.1562C126.035 17.5312 126.27 17.7188 126.738 17.7188ZM128.004 10.4766C128.004 10.7109 128.109 10.8281 128.32 10.8281C128.508 10.8281 128.719 10.7461 128.953 10.582C129.188 10.418 129.422 10.1602 129.656 9.80859C130.055 9.24609 130.5 8.51953 130.992 7.62891C131.391 6.92578 131.66 6.49219 131.801 6.32812C132.504 5.36719 132.855 4.5 132.855 3.72656C132.809 3.28125 132.703 2.97656 132.539 2.8125C132.375 2.625 132.082 2.53125 131.66 2.53125H131.52H131.484L130.816 2.60156C130.301 2.67188 129.926 2.76562 129.691 2.88281C129.48 3 129.316 3.22266 129.199 3.55078C129.105 3.85547 129.035 4.39453 128.988 5.16797C128.941 5.56641 128.836 6.15234 128.672 6.92578C128.484 7.74609 128.379 8.33203 128.355 8.68359C128.379 8.70703 128.391 8.75391 128.391 8.82422C128.391 8.94141 128.332 9.21094 128.215 9.63281C128.074 10.0547 128.004 10.3359 128.004 10.4766ZM139.43 18.6328C139.289 18.6328 139.113 18.5273 138.902 18.3164C138.762 18.1289 138.691 17.8828 138.691 17.5781C138.691 17.1562 138.879 16.1953 139.254 14.6953C139.512 13.6641 139.699 12.7266 139.816 11.8828C139.934 11.0391 140.062 9.66797 140.203 7.76953C140.508 3.43359 140.719 1.17188 140.836 0.984375C140.953 0.867187 141.07 0.808594 141.188 0.808594C141.398 0.808594 141.598 0.9375 141.785 1.19531C141.973 1.45313 142.066 1.75781 142.066 2.10938C142.043 2.29688 142.02 2.49609 141.996 2.70703C141.902 3.64453 141.855 4.78125 141.855 6.11719C141.809 7.5 141.762 8.51953 141.715 9.17578C141.668 9.83203 141.562 10.3945 141.398 10.8633C141.281 11.3789 141.223 11.8594 141.223 12.3047C141.223 12.5859 141.082 13.3125 140.801 14.4844C140.543 15.6562 140.367 16.3242 140.273 16.4883C140.109 16.8164 140.004 17.2266 139.957 17.7188C139.91 18.0469 139.852 18.2812 139.781 18.4219C139.734 18.5625 139.617 18.6328 139.43 18.6328ZM146.25 16.5234C145.5 16.5234 144.914 16.1836 144.492 15.5039C144.094 14.8242 143.895 14.0039 143.895 13.043C143.895 11.9648 144.176 11.0625 144.738 10.3359C145.324 9.58594 146.203 8.90625 147.375 8.29688C147.656 8.17969 147.961 8.12109 148.289 8.12109C148.852 8.12109 149.438 8.25 150.047 8.50781C150.656 8.74219 151.16 9.07031 151.559 9.49219C151.98 9.89062 152.191 10.3242 152.191 10.793C152.191 11.0508 152.098 11.4258 151.91 11.918C151.629 12.668 151.148 13.4062 150.469 14.1328C149.812 14.8359 149.098 15.4102 148.324 15.8555C147.551 16.3008 146.859 16.5234 146.25 16.5234ZM146.496 14.9414C146.637 14.9414 146.859 14.8828 147.164 14.7656C148.195 14.3438 149.133 13.582 149.977 12.4805C150.492 11.8242 150.75 11.3555 150.75 11.0742C150.75 10.7461 150.48 10.4062 149.941 10.0547C149.496 9.79688 148.98 9.66797 148.395 9.66797C148.066 9.66797 147.762 9.72656 147.48 9.84375L146.988 10.0547C146.707 10.1719 146.508 10.3008 146.391 10.4414C146.273 10.582 146.109 10.8867 145.898 11.3555C145.547 12.082 145.371 12.5742 145.371 12.832C145.371 13.043 145.441 13.3945 145.582 13.8867C145.793 14.5898 146.098 14.9414 146.496 14.9414ZM155.988 27.4922C155.426 27.4922 154.957 27.4336 154.582 27.3164C154.23 27.1992 153.809 26.9766 153.316 26.6484C152.496 26.1094 151.793 25.3945 151.207 24.5039C150.621 23.6133 150.328 22.8516 150.328 22.2188C150.328 21.9844 150.469 21.6914 150.75 21.3398C150.844 21.3398 150.996 21.4688 151.207 21.7266C151.418 21.9609 151.523 22.1367 151.523 22.2539C151.523 22.4648 151.711 22.8281 152.086 23.3438C152.461 23.8594 152.836 24.293 153.211 24.6445C153.75 25.1602 154.219 25.4883 154.617 25.6289C155.016 25.7695 155.648 25.8398 156.516 25.8398C157.102 25.8398 157.559 25.8164 157.887 25.7695C158.074 25.7461 158.262 25.6758 158.449 25.5586C158.707 25.3477 158.871 25.1133 158.941 24.8555C159.176 24.3633 159.469 20.7773 159.82 14.0977C159.844 13.8164 159.855 13.5352 159.855 13.2539C159.855 12.668 159.762 12.375 159.574 12.375C159.41 12.375 159.129 12.5859 158.73 13.0078C157.934 13.8047 157.195 14.2031 156.516 14.2031C155.906 14.2031 155.426 13.8516 155.074 13.1484C154.84 12.75 154.723 12.2227 154.723 11.5664C154.746 10.582 154.992 9.72656 155.461 9C155.93 8.25 156.48 7.67578 157.113 7.27734C157.746 6.87891 158.309 6.67969 158.801 6.67969C159.738 6.67969 160.57 7.25391 161.297 8.40234C161.438 8.49609 161.508 9.55078 161.508 11.5664C161.508 12.8086 161.473 14.1211 161.402 15.5039C161.355 16.8633 161.309 17.6602 161.262 17.8945H161.227L161.086 19.9688C160.828 23.5312 160.488 25.6641 160.066 26.3672C159.105 27.0938 158.133 27.457 157.148 27.457H157.043C156.691 27.4805 156.34 27.4922 155.988 27.4922ZM156.727 12.6211C156.984 12.5977 157.348 12.3516 157.816 11.8828C158.309 11.4141 158.742 10.8984 159.117 10.3359C159.492 9.77344 159.68 9.30469 159.68 8.92969C159.68 8.74219 159.633 8.60156 159.539 8.50781C159.422 8.32031 159.152 8.22656 158.73 8.22656C158.426 8.22656 158.145 8.29688 157.887 8.4375C157.535 8.67188 157.23 8.94141 156.973 9.24609C156.738 9.52734 156.609 9.77344 156.586 9.98438C156.539 10.2422 156.434 10.5117 156.27 10.793C156.105 11.0273 156.023 11.2852 156.023 11.5664C156.023 11.8477 156.082 12.082 156.199 12.2695C156.316 12.457 156.492 12.5742 156.727 12.6211Z" fill="white"/>
</svg>
